<svg xmlns="http://www.w3.org/2000/svg" width="16.233" height="21" viewBox="0 0 16.233 21">
  <path id="Union_41" data-name="Union 41" d="M11.128,21A1.611,1.611,0,0,1,9.7,20.154H6.348A1.608,1.608,0,0,1,4.917,21H3.091a1.611,1.611,0,0,1-1.468-.922A2.135,2.135,0,0,1,0,18.036V9.993A2.063,2.063,0,0,1,.3,8.924a1.5,1.5,0,0,1,1.182-1.43V6.274A6.394,6.394,0,0,1,7.991,0h.251a6.394,6.394,0,0,1,6.507,6.274V7.49a1.5,1.5,0,0,1,1.2,1.445v.01a2.066,2.066,0,0,1,.289,1.047v8.043A2.133,2.133,0,0,1,14.4,20.123,1.6,1.6,0,0,1,12.952,21ZM7.912,10.539a1.765,1.765,0,0,0-1.579,1.524,1.709,1.709,0,0,0,.777,1.629.265.265,0,0,1,.118.26L6.787,16.84a.265.265,0,0,0,.065.217.283.283,0,0,0,.211.094H9.169a.286.286,0,0,0,.212-.094.266.266,0,0,0,.065-.217L9,13.951a.266.266,0,0,1,.119-.261,1.715,1.715,0,0,0,.787-1.432,1.765,1.765,0,0,0-1.794-1.73A1.85,1.85,0,0,0,7.912,10.539ZM4.794,7.453a1.564,1.564,0,0,1,1.072.42H10.38a1.561,1.561,0,0,1,1.072-.42h.837V6.17A4,4,0,0,0,8.215,2.242h-.2A4,4,0,0,0,3.944,6.17V7.453ZM6.83,6.464A.18.18,0,0,1,6.82,6.2a.2.2,0,0,1,.27-.01,1.575,1.575,0,0,0,2.052,0,.2.2,0,0,1,.271.01.18.18,0,0,1-.011.261,1.929,1.929,0,0,1-2.572,0ZM9.2,5.018a.739.739,0,1,1,.738.712A.726.726,0,0,1,9.2,5.018Zm-3.643,0a.739.739,0,1,1,.738.712A.725.725,0,0,1,5.557,5.018Z" fill="#4cb649"/>
</svg>
